HIERARCHY
ROOT hip
{
	OFFSET 0.000000 0.000000 0.000000 
	CHANNELS 6 Xposition Yposition Zposition Xrotation Zrotation Yrotation
	JOINT abdomen
	{
		OFFSET 0.000000 3.402643 0.000000 
		CHANNELS 3 Xrotation Zrotation Yrotation
		JOINT chest
		{
			OFFSET 0.000000 8.438565 -0.680529 
			CHANNELS 3 Xrotation Zrotation Yrotation
			JOINT neck
			{
				OFFSET 0.000000 10.207942 -0.272212 
				CHANNELS 3 Xrotation Zrotation Yrotation
				JOINT head
				{
					OFFSET 0.000000 3.130431 0.000000 
					CHANNELS 3 Xrotation Zrotation Yrotation
					End Site
					{
						OFFSET 0.000000 3.130435 0.000000 
					}
				}
			}
			JOINT lCollar
			{
				OFFSET 3.470700 6.669187 -0.816635 
				CHANNELS 3 Yrotation Zrotation Xrotation
				JOINT lShldr
				{
					OFFSET 3.198488 0.000000 0.000000 
					CHANNELS 3 Zrotation Yrotation Xrotation
					JOINT lForeArm
					{
						OFFSET 10.139888 0.000000 0.000000 
						CHANNELS 3 Yrotation Zrotation Xrotation
						JOINT lHand
						{
							OFFSET 8.370511 0.000000 0.000000 
							CHANNELS 3 Zrotation Yrotation Xrotation
							End Site
							{
								OFFSET 4.083176 0.000000 0.000000 
							}
						}
					}
				}
			}
			JOINT rCollar
			{
				OFFSET -3.470700 6.669187 -0.816635 
				CHANNELS 3 Yrotation Zrotation Xrotation
				JOINT rShldr
				{
					OFFSET -3.198488 0.000000 0.000000 
					CHANNELS 3 Zrotation Yrotation Xrotation
					JOINT rForeArm
					{
						OFFSET -10.139888 0.000000 0.000000 
						CHANNELS 3 Yrotation Zrotation Xrotation
						JOINT rHand
						{
							OFFSET -8.370511 0.000000 0.000000 
							CHANNELS 3 Zrotation Yrotation Xrotation
							End Site
							{
								OFFSET -4.083176 0.000000 0.000000 
							}
						}
					}
				}
			}
		}
	}
	JOINT lThigh
	{
		OFFSET 5.308129 -1.633274 1.361059 
		CHANNELS 3 Xrotation Zrotation Yrotation
		JOINT lShin
		{
			OFFSET -2.041588 -20.007561 0.000000 
			CHANNELS 3 Xrotation Zrotation Yrotation
			JOINT lFoot
			{
				OFFSET 0.000000 -19.190928 -1.224953 
				CHANNELS 3 Xrotation Yrotation Zrotation
				End Site
				{
					OFFSET 0.000000 -2.449906 4.627600 
				}
			}
		}
	}
	JOINT rThigh
	{
		OFFSET -5.308129 -1.633274 1.361059 
		CHANNELS 3 Xrotation Zrotation Yrotation
		JOINT rShin
		{
			OFFSET 2.041588 -20.007561 0.000000 
			CHANNELS 3 Xrotation Zrotation Yrotation
			JOINT rFoot
			{
				OFFSET 0.000000 -19.190928 -1.224953 
				CHANNELS 3 Xrotation Yrotation Zrotation
				End Site
				{
					OFFSET 0.000000 -2.449906 4.627600 
				}
			}
		}
	}
}
MOTION
Frames: 13
Frame Time: 0.011111
2.103809 51.448994 21.423782 9.229250 0.326319 -3.647236 10.602429 -1.230023 3.362124 -20.938375 -1.873765 0.922538 -23.746899 -0.019921 0.014715 60.168114 1.186970 0.650196 -5.788594 -15.737329 -1.465587 -49.604610 -24.817232 -5.007662 -69.055954 9.253548 16.613792 8.524705 12.647240 -47.054085 7.611086 14.174596 -1.900835 58.100498 8.810801 2.147386 49.058243 -7.481637 7.780344 -8.534408 -12.637552 54.476425 -13.011200 -0.487586 -8.533078 31.169527 -5.277714 -5.032082 -35.662537 8.568461 4.587524 -29.697010 -3.876861 -1.241938 51.974358 3.576453 7.392538 -24.889769 -14.482885 -3.389953 
2.108931 51.517487 21.795700 9.336975 0.217647 -3.606248 10.633919 -0.976249 3.363958 -20.703932 -1.838833 0.903717 -23.844040 0.049772 0.028043 59.941467 1.050568 0.645547 -5.788594 -15.737329 -1.465587 -49.450089 -25.362690 -4.557485 -69.477867 9.213420 16.827557 8.524705 12.647240 -46.966194 7.611086 14.174596 -1.900835 57.989548 9.072581 2.041481 49.162411 -7.506561 7.819454 -8.534408 -12.637552 55.081890 -12.440518 -0.419840 -9.226521 30.621555 -5.302379 -4.960512 -36.379932 8.132391 4.590210 -30.185663 -3.787693 -0.950024 49.942455 3.771866 7.185259 -26.144621 -14.437180 -3.811312 
2.105731 51.544689 22.180103 9.493860 0.270770 -3.509287 10.489175 -0.969259 3.319087 -20.762589 -1.779711 0.893692 -23.589666 0.211647 0.007248 59.801502 0.840865 0.562977 -5.788594 -15.737329 -1.465587 -49.320660 -25.508057 -4.231837 -69.813499 9.174657 16.983385 8.524705 12.647240 -47.102921 7.611086 14.174596 -1.900835 58.009693 8.838859 1.958874 49.329731 -7.551588 7.895198 -8.534408 -12.637552 55.589703 -11.628199 -0.507754 -9.502457 29.832348 -5.351390 -4.834208 -36.709236 7.994531 4.645437 -30.723461 -3.963729 -0.703057 47.858864 3.974604 6.961045 -27.204264 -14.312762 -4.159350 
2.043317 51.527725 22.557144 9.715392 0.385122 -3.748605 10.246945 -1.187542 3.442119 -21.241371 -1.487073 0.944569 -22.984196 0.173875 0.016985 59.616707 0.889424 0.595153 -5.788594 -15.737329 -1.465587 -49.239677 -25.127851 -3.704646 -70.204544 9.134390 17.184036 8.524705 12.647240 -46.995495 7.611086 14.174596 -1.900835 58.120068 8.124243 1.511259 49.653069 -7.628539 8.021610 -8.534408 -12.637552 55.599468 -10.768277 -0.448751 -9.125520 28.891970 -5.399779 -4.723240 -36.635006 8.336717 4.796271 -31.500731 -3.768975 0.200159 45.703857 4.162777 6.738961 -27.609779 -15.020661 -4.559184 
2.039156 51.557495 22.934505 9.814801 0.547706 -3.562268 10.209601 -1.253000 3.284966 -20.694448 -1.438502 0.898980 -23.521788 0.177942 -0.021396 59.588802 1.010381 0.585921 -5.788594 -15.737329 -1.465587 -49.020199 -25.834372 -3.367441 -70.664360 9.072881 17.405968 8.524705 12.647240 -46.761116 7.611086 14.174596 -1.900835 58.040436 8.901745 0.567633 49.392097 -7.564843 7.914662 -8.534408 -12.637552 55.150249 -9.662968 -0.604624 -9.200250 27.789074 -5.458480 -4.589545 -36.506035 8.531123 4.880492 -31.986216 -4.071655 0.604729 43.417492 4.368157 6.476267 -27.877466 -15.306158 -4.769814 
2.004589 51.623108 23.312504 9.999200 0.384982 -3.640872 10.141811 -1.079333 3.412736 -20.665178 -1.389481 0.916059 -23.668745 0.353279 -0.107309 59.596596 0.924332 0.458494 -5.788594 -15.737329 -1.465587 -48.903759 -25.863194 -2.900840 -71.250542 8.992442 17.699575 8.524705 12.647240 -46.614639 7.611086 14.174596 -1.900835 58.027702 9.077333 0.007210 49.048573 -7.483430 7.778763 -8.534408 -12.637552 54.867046 -8.804195 -0.312036 -9.403520 26.704691 -5.512317 -4.446048 -36.557064 8.567101 4.927185 -32.372108 -3.818139 1.324820 40.920162 4.573276 6.189712 -28.291737 -15.316755 -4.932250 
1.970981 51.681042 23.693068 10.233451 0.306430 -3.616443 9.834815 -0.938339 3.294048 -20.831411 -1.202884 0.874032 -23.160793 0.537426 -0.125918 59.319782 0.634493 0.357041 -5.788594 -15.737329 -1.465587 -48.868591 -25.496946 -2.474169 -71.783966 8.913678 17.966665 8.524705 12.647240 -46.224010 7.611086 14.174596 -1.900835 57.910927 8.777353 -0.082096 48.809330 -7.425382 7.682908 -8.534408 -12.637552 54.671734 -8.008901 -0.115803 -9.566949 25.737797 -5.561269 -4.330813 -36.632790 8.490172 4.897572 -32.718765 -3.700615 2.153519 38.279263 4.778922 5.873478 -28.864334 -15.248076 -5.144915 
1.941216 51.757538 24.079390 10.508020 0.316166 -3.467305 9.760456 -0.884602 3.079679 -20.548347 -1.082553 0.795582 -23.980734 0.642150 -0.105309 59.680614 0.550404 0.407484 -5.788594 -15.737329 -1.465587 -48.683601 -26.147743 -2.486543 -71.979546 8.878389 18.068861 8.524705 12.647240 -46.175186 7.611086 14.174596 -1.900835 57.834297 9.378076 -0.973242 48.559345 -7.362133 7.587380 -8.534408 -12.637552 53.812359 -7.488120 -0.067878 -9.774083 24.890625 -5.605054 -4.195391 -36.273605 9.355298 5.246937 -33.006371 -3.827775 2.972701 35.464451 4.974193 5.522462 -29.493805 -15.095277 -5.333528 
1.895765 51.861877 24.458670 10.801713 0.361713 -3.350973 9.500995 -0.884648 2.965930 -20.909946 -0.863601 0.774463 -23.736076 0.648673 -0.066007 59.835754 0.389650 0.416634 -5.788594 -15.737329 -1.465587 -48.665890 -25.881193 -2.236118 -72.156471 8.848433 18.148462 8.524705 12.647240 -46.106823 7.611086 14.174596 -1.900835 57.836411 8.905885 -1.486780 48.695541 -7.401518 7.642655 -8.534408 -12.637552 53.519390 -7.030782 0.060252 -9.819810 23.901907 -5.637969 -4.083939 -35.703316 10.223036 5.528159 -33.352551 -3.915841 4.081241 32.700546 5.150278 5.192749 -30.028002 -15.254777 -5.624463 
1.864078 51.944778 24.846914 11.106014 0.284289 -3.168669 9.201814 -0.662019 2.836651 -20.695278 -0.741356 0.717927 -23.921402 0.573626 -0.042993 59.796810 0.403005 0.418274 -5.788594 -15.737329 -1.465587 -48.568653 -26.078609 -1.946607 -72.365189 8.815628 18.271694 8.524705 12.647240 -45.833385 7.611086 14.174596 -1.900835 57.711758 9.047879 -1.803720 48.694588 -7.395073 7.635381 -8.534408 -12.637552 53.255718 -6.413779 0.351658 -9.994096 22.898684 -5.683227 -3.933826 -35.848240 9.486154 5.167737 -33.668831 -3.993780 5.276158 30.046259 5.316836 4.844840 -30.827116 -15.287507 -5.969381 
1.858958 52.025757 25.266523 11.431872 0.370204 -2.764696 8.745335 -0.560306 2.492753 -20.480537 -0.698644 0.606228 -24.088137 0.580802 -0.099062 59.923122 0.353880 0.272297 -5.788594 -15.737329 -1.465587 -48.412163 -26.300201 -1.897467 -72.396255 8.809134 18.275238 8.524705 12.647240 -45.960335 7.611086 14.174596 -1.900835 57.604977 9.201950 -2.278470 48.434967 -7.332994 7.538651 -8.534408 -12.637552 52.816269 -5.529554 0.313741 -10.235662 21.578184 -5.731511 -3.745766 -35.517067 9.759372 5.201975 -34.145390 -4.472351 6.263529 27.772633 5.444360 4.555475 -31.564753 -15.228134 -6.260921 
1.782781 52.055202 25.645805 11.851464 0.269742 -2.757312 8.337287 -0.483511 2.518336 -20.568630 -0.550986 0.612197 -24.098412 0.543049 -0.135635 60.069752 0.420876 0.203115 -5.788594 -15.737329 -1.465587 -48.277203 -26.327467 -1.634600 -72.498848 8.788984 18.326258 8.524705 12.647240 -46.048229 7.611086 14.174596 -1.900835 57.609238 9.320589 -3.179992 47.925957 -7.202801 7.340568 -8.534408 -12.637552 52.074078 -4.725916 0.635582 -9.908563 19.984495 -5.784550 -3.552500 -34.625694 10.858590 5.445415 -35.069092 -4.239092 8.559465 25.922184 5.544971 4.305237 -32.782036 -15.860225 -7.053970 
1.750134 52.060966 26.091019 12.148117 0.771808 -2.331216 7.800632 -0.972353 2.090653 -20.520075 -0.388425 0.518515 -23.815346 0.683747 -0.156023 59.844360 0.262035 0.164683 -5.788594 -15.737329 -1.465587 -48.212765 -26.056797 -1.341777 -72.801804 8.738770 18.488840 8.524705 12.647240 -45.979874 7.611086 14.174596 -1.900835 57.634476 9.274508 -4.070192 47.573780 -7.112885 7.199339 -8.534408 -12.637552 51.214706 -3.423310 0.235103 -9.894047 18.223536 -5.847110 -3.286338 -33.873085 11.236331 5.339420 -36.144543 -4.990802 10.458149 24.562258 5.598932 4.136056 -33.706398 -16.583708 -7.815149 
